<?xml version="1.0" encoding="UTF-8"?><svg id="Capa_2" xmlns="http://www.w3.org/2000/svg" viewBox="0 0 176.84 200"><defs><style>.cls-1{fill:#ef27db;}</style></defs><g id="Capa_1-2"><path class="cls-1" d="m124.62,30.9l-8.85,15.31c25.55,10.7,43.49,35.94,43.49,65.38,0,39.12-31.71,70.83-70.85,70.83S17.58,150.71,17.58,111.59c0-29.45,17.94-54.67,43.47-65.38l-8.83-15.31C21.44,44.72,0,75.65,0,111.59c0,48.81,39.6,88.41,88.41,88.41s88.43-39.6,88.43-88.41c0-35.94-21.43-66.87-52.22-80.69Z"/><circle class="cls-1" cx="88.41" cy="111.58" r="30.55"/><path class="cls-1" d="m93.41,67.25L127.24,8.65c2.22-3.85-.56-8.65-5-8.65H54.59c-4.44,0-7.22,4.81-5,8.65l33.83,58.59c2.22,3.85,7.77,3.85,9.99,0Z"/></g></svg>