<?xml version="1.0" encoding="UTF-8"?><svg id="Capa_2" xmlns="http://www.w3.org/2000/svg" viewBox="0 0 1028 665.02"><defs><style>.cls-1{fill:#3f3d56;}.cls-2{fill:#c46fd8;}.cls-3{isolation:isolate;opacity:.2;}.cls-4{fill:#2d2d2d;}.cls-5{fill:#ef27db;}.cls-6{fill:#f2f2f2;}</style></defs><g id="Capa_2-2"><path id="Path_83" class="cls-6" d="m1000.21,457.95c-5.64,45.15-17.36,81.4-33.45,110.31-21.4,38.52-58.02,54.04-90.72,70.28-9.45,4.68-19.28,8.68-29.39,11.94-59.52,19.3-126.13,14.18-178.45,3.99-36.7-7.15-73.95-11.55-111.4-13.16-10.68-.45-21.37-.67-32.08-.67-16.5.02-313.66,5.29-386.01-131.57-17.86-33.76-30.11-75-34.5-125.27-12.45-142.12,55.96-235.46,144.21-296.47,166.93-115.41,395.74-110.57,560.2,7.88,109.55,78.9,212.12,198.31,191.6,362.74Z"/><rect class="cls-1" x="465.31" y="41.95" width="441.16" height="59.93"/><path class="cls-1" d="m465.31,588.85c0,14.38,11.63,26.01,26.01,26.01h389.26c14.38,0,26.01-11.63,26.01-26.01h0V71.91h-441.28v516.94h0Z"/><path class="cls-1" d="m880.45,0h-389.14c-14.38,0-26.01,11.63-26.01,26.01h0v45.9h441.16V26.01c0-14.38-11.63-26.01-26.01-26.01h0Z"/><path class="cls-3" d="m880.45,0h-389.14c-14.38,0-26.01,11.63-26.01,26.01h0v45.9h441.16V26.01c0-14.38-11.63-26.01-26.01-26.01h0Z"/><circle class="cls-1" cx="525.23" cy="35.96" r="15.58"/><circle class="cls-1" cx="568.38" cy="35.96" r="15.58"/><circle class="cls-1" cx="611.53" cy="35.96" r="15.58"/><path class="cls-4" d="m494.34,94.79h383.09c2.68,0,4.89,1.73,4.89,3.82v270.19c0,2.09-2.21,3.82-4.89,3.82h-383.09c-2.68,0-4.89-1.73-4.89-3.82V98.6c0-2.09,2.21-3.82,4.89-3.82Z"/><path class="cls-2" d="m583.53,412.74h204.83c3.6,0,6.59,3,6.59,6.59v13.18c0,3.6-3,6.59-6.59,6.59h-204.83c-3.6,0-6.59-3-6.59-6.59v-13.18c0-3.6,3-6.59,6.59-6.59Z"/><path class="cls-2" d="m504.43,477.29h363.03c3.6,0,6.59,3,6.59,6.59v4.79c0,3.6-3,6.59-6.59,6.59h-363.03c-3.6,0-6.59-3-6.59-6.59v-4.79c0-3.6,3-6.59,6.59-6.59Z"/><path class="cls-2" d="m504.43,517.39h363.03c3.6,0,6.59,3,6.59,6.59v4.79c0,3.6-3,6.59-6.59,6.59h-363.03c-3.6,0-6.59-3-6.59-6.59v-4.79c0-3.6,3-6.59,6.59-6.59Z"/><path class="cls-2" d="m504.43,557.48h363.03c3.6,0,6.59,3,6.59,6.59v4.79c0,3.6-3,6.59-6.59,6.59h-363.03c-3.6,0-6.59-3-6.59-6.59v-4.79c0-3.6,3-6.59,6.59-6.59Z"/><path class="cls-5" d="m718.25,178.38l-7.86,13.62c22.81,9.58,38.77,32.08,38.77,58.31,0,34.88-28.26,63.14-63.22,63.14s-63.14-28.26-63.14-63.14c0-26.24,15.96-48.74,38.77-58.31l-7.94-13.62c-27.48,12.3-46.56,39.94-46.56,71.94,0,43.52,35.35,78.87,78.87,78.87s78.87-35.35,78.87-78.87c0-32-19.15-59.64-46.56-71.94h0Z"/><circle class="cls-5" cx="685.94" cy="250.32" r="27.25"/><path class="cls-5" d="m689.84,211.78l31.3-54.19c1.71-3.04-.47-6.7-3.89-6.7h-62.6c-3.43,0-5.61,3.74-3.89,6.7l31.3,54.19c1.71,2.96,6.07,2.96,7.79,0h0Z"/><ellipse class="cls-1" cx="514" cy="637.52" rx="514" ry="27.5"/><ellipse class="cls-3" cx="513" cy="629.02" rx="460" ry="22"/><rect class="cls-1" x="297.7" y="182.06" width="277.89" height="46.38"/><path class="cls-1" d="m297.7,605.32c0,11.13,9,20.13,20.13,20.13h237.72c11.13,0,20.13-9,20.13-20.13h0V205.25h-277.98v400.07h0Z"/><path class="cls-1" d="m555.46,149.59h-237.63c-11.13,0-20.13,9-20.13,20.13h0v35.53h277.89v-35.53c0-11.13-9-20.13-20.13-20.13h0Z"/><path class="cls-3" d="m555.46,149.59h-237.63c-11.13,0-20.13,9-20.13,20.13h0v35.53h277.89v-35.53c0-11.13-9-20.13-20.13-20.13h0Z"/><circle class="cls-1" cx="344.08" cy="177.42" r="12.06"/><circle class="cls-1" cx="377.47" cy="177.42" r="12.06"/><circle class="cls-1" cx="410.87" cy="177.42" r="12.06"/><path class="cls-4" d="m320.17,222.95h232.95c2.07,0,3.78,1.34,3.78,2.95v209.1c0,1.62-1.71,2.95-3.78,2.95h-232.95c-2.07,0-3.78-1.34-3.78-2.95v-209.1c0-1.62,1.71-2.95,3.78-2.95Z"/><path class="cls-2" d="m384.52,486.95h104.34c2.78,0,5.1,2.32,5.1,5.1v10.2c0,2.78-2.32,5.1-5.1,5.1h-104.34c-2.78,0-5.1-2.32-5.1-5.1v-10.2c0-2.78,2.32-5.1,5.1-5.1Z"/><path class="cls-2" d="m323.3,536.91h226.78c2.78,0,5.1,2.32,5.1,5.1v3.71c0,2.78-2.32,5.1-5.1,5.1h-226.78c-2.78,0-5.1-2.32-5.1-5.1v-3.71c0-2.78,2.32-5.1,5.1-5.1Z"/><path class="cls-2" d="m323.3,567.94h226.78c2.78,0,5.1,2.32,5.1,5.1v3.71c0,2.78-2.32,5.1-5.1,5.1h-226.78c-2.78,0-5.1-2.32-5.1-5.1v-3.71c0-2.78,2.32-5.1,5.1-5.1Z"/><path class="cls-2" d="m323.3,598.97h226.78c2.78,0,5.1,2.32,5.1,5.1v3.71c0,2.78-2.32,5.1-5.1,5.1h-226.78c-2.78,0-5.1-2.32-5.1-5.1v-3.71c0-2.78,2.32-5.1,5.1-5.1Z"/><path class="cls-5" d="m461.68,287.65l-6.09,10.54c17.65,7.41,30.01,24.82,30.01,45.13,0,26.99-21.87,48.87-48.93,48.87s-48.87-21.87-48.87-48.87c0-20.31,12.35-37.72,30.01-45.13l-6.15-10.54c-21.27,9.52-36.03,30.91-36.03,55.67,0,33.68,27.36,61.04,61.04,61.04s61.04-27.36,61.04-61.04c0-24.76-14.82-46.15-36.03-55.67h0Z"/><circle class="cls-5" cx="436.68" cy="343.32" r="21.09"/><path class="cls-5" d="m439.69,313.49l24.22-41.94c1.33-2.35-.36-5.18-3.01-5.18h-48.44c-2.65,0-4.34,2.89-3.01,5.18l24.22,41.94c1.33,2.29,4.7,2.29,6.03,0h0Z"/></g></svg>