<?xml version="1.0" encoding="UTF-8"?><svg id="Capa_2" xmlns="http://www.w3.org/2000/svg" viewBox="0 0 1041.28 554.14"><defs><style>.cls-1{fill:#3f3d56;}.cls-2{fill:#fbbebe;}.cls-3{fill:#39374d;}.cls-4{fill:#65617d;}.cls-5{fill:#ff66db;}.cls-6{fill:#61dafb;}.cls-7{opacity:.2;}.cls-7,.cls-8{isolation:isolate;}.cls-9{fill:#4267b2;}.cls-8{opacity:.1;}.cls-10{fill:#ef27db;}.cls-11{fill:#f2f2f2;}</style></defs><g id="Capa_1-2"><g id="Group_24"><g id="Group_23"><path id="Path_299" class="cls-11" d="m961.47,438.18c-1.16,2.5-2.32,4.97-3.47,7.4-1.8,3.78-3.58,7.49-5.33,11.12-.78,1.61-1.56,3.19-2.32,4.77-8.6,17.57-16.63,33.11-23.45,45.89-12.6,23.59-37.07,38.42-63.81,38.7l-151.65,1.65h-1.6l-13,.14-11.12.12-34.1.37h-1.38l-17.36.19h-.53l-107,1.16-95.51,1-11.11.12-69,.75h-.08l-44.75.48h-.48l-141.5,1.53-42.33.46c-3.6.04-7.21-.14-10.79-.54h0c-1.22-.14-2.44-.3-3.65-.49-19.74-3.05-37.84-12.77-51.29-27.54-18.21-20.03-31.46-43.4-40.36-68.76-1.29-3.66-2.49-7.37-3.6-11.12-30.81-104.15,6.75-238.52,74.35-328.44,2.83-3.76,5.71-7.43,8.64-11l.07-.08c20.79-25.52,44.1-46.84,68.93-62,44-26.91,92.75-34.49,140.7-11.9,40.57,19.12,78.45,28.11,115.17,30.55,3.71.24,7.42.42,11.11.53,84.23,2.65,163.17-27.7,255.87-47.29,3.69-.78,7.39-1.55,11.12-2.28,66.13-13.16,139.49-20.1,226.73-5.51,9.06,1.48,18.01,3.62,26.76,6.4,3.85,1.24,7.55,2.57,11.12,4,41.64,16.94,64.35,48.24,74,87.46.91,3.64,1.7,7.34,2.37,11.11,17.11,94.34-33,228.16-76.37,321.05Z"/><path id="Path_300" class="cls-8" d="m497.01,445.58c-.4,3.74-1.03,7.45-1.87,11.12h93.7v-11.12h-91.83Zm-78.25,62.81l11.11-.09v-27.47c-3.81-.17-7.52-.34-11.11-.52v28.08Zm-232.92-62.81v11.12h198.5v-11.12h-198.5ZM1035.52,106.06h-74V18.57c-3.57-1.45-7.27-2.78-11.12-4v91.49h-253.54V13.64c-3.73.73-7.43,1.5-11.12,2.28v90.14h-255.87v-42.85c-3.69-.11-7.4-.29-11.11-.53v43.38h-255.87v-62c-24.83,15.16-48.14,36.48-68.93,62h-.07v.08c-2.93,3.6-5.81,7.27-8.64,11h8.64v328.44H10.89c1.11,3.75,2.31,7.46,3.6,11.12h79.39v93.62c3.99,1.22,8.07,2.15,12.2,2.79,1.21.19,2.43.35,3.65.49h0c3.58.4,7.19.58,10.79.54l42.33-.46v-97h255.91v94.21l11.11-.12v-94.07h255.87v91.36l11.12-.12v-91.24h253.49v4.77c.76-1.58,1.54-3.16,2.32-4.77,1.75-3.63,3.53-7.34,5.33-11.12,1.15-2.43,2.31-4.89,3.47-7.4V117.18h76.42c-.67-3.79-1.46-7.5-2.37-11.12ZM162.89,445.58V117.14h255.87v328.44h-255.87Zm267,0V117.14h255.85v328.44h-255.85Zm520.48,0h-253.51V117.14h253.49l.02,328.44Z"/><path id="Path_301" class="cls-4" d="m863.08,533.62v13l-151.92,1.4-1.62.03-57.74.53-1.38.02-17.55.15h-.52l-106.98.99-175.61,1.63h-.15l-44.65.42h-.48s-198.4,1.83-198.4,1.83v-15l46.65-28,93.6-.78h2s.66-.02.66-.02l2-.03,44.94-.37h2.01s.64-.02.64-.02h2s14.41-.13,14.41-.13h.38s35.55-.31,35.55-.31h.29l277.4-2.34,6.79-.05h.68l5.18-.05,37.65-.31,2-.03,1.85-.02h.96l11.71-.09,2.32-.03,3.11-.02,9.75-.09,15.47-.13,2-.02,3.48-.02h.65l74.71-.64,56.16,28.5Z"/><path id="Path_302" class="cls-7" d="m863.08,533.62v13l-151.92,1.4-1.62.03-57.74.53-1.38.02-17.55.15h-.52l-106.98.99-175.61,1.63h-.15l-44.65.42h-.48s-198.4,1.83-198.4,1.83v-15l46.65-28,93.6-.78h2s.66-.02.66-.02l2-.03,44.94-.37h2.01s.64-.02.64-.02h2s14.41-.13,14.41-.13h.38s35.55-.31,35.55-.31h.29l277.4-2.34,6.79-.05h.68l5.18-.05,37.65-.31,2-.03,1.85-.02h.96l11.71-.09,2.32-.03,3.11-.02,9.75-.09,15.47-.13,2-.02,3.48-.02h.65l74.71-.64,56.16,28.5Z"/><path id="Path_303" class="cls-1" d="m296.09,483.63v24.49c0,2.37-1.36,4.52-3.5,5.54-.78.38-1.63.58-2.5.6l-34.9.74c-.93.02-1.86-.17-2.7-.57-2.18-1-3.57-3.17-3.57-5.57v-25.23h47.17Z"/><path id="Path_304" class="cls-8" d="m296.09,483.63v24.49c0,2.37-1.36,4.52-3.5,5.54-.78.38-1.63.58-2.5.6l-34.9.74c-.93.02-1.86-.17-2.7-.57-2.18-1-3.57-3.17-3.57-5.57v-25.23h47.17Z"/><path id="Path_305" class="cls-1" d="m298.09,483.63v24.49c0,2.37-1.36,4.52-3.5,5.54-.78.38-1.63.58-2.5.6l-34.9.74c-.93.02-1.86-.17-2.7-.57-2.18-1-3.57-3.17-3.57-5.57v-25.23h47.17Z"/><rect id="Rectangle_137" class="cls-1" x="680.91" y="483.62" width="47.17" height="31.5"/><rect id="Rectangle_138" class="cls-8" x="680.91" y="483.62" width="47.17" height="31.5"/><rect id="Rectangle_139" class="cls-1" x="678.91" y="483.62" width="47.17" height="31.5"/><path id="Path_306" class="cls-8" d="m298.08,483.62v4.97l-47.17,1.26v-6.23h47.17Z"/><path id="Path_307" class="cls-4" d="m381.34,312.33v168.2c-.03,2.13-1.72,3.87-3.85,3.95l-191.65,5.1h-.05c-2.17-.03-3.92-1.78-3.95-3.95v-173.3c.03-2.17,1.78-3.92,3.95-3.95h191.6c2.17.03,3.92,1.78,3.95,3.95h0Z"/><path id="Path_308" class="cls-8" d="m185.84,308.38v181.2h-.05c-2.17-.03-3.92-1.78-3.95-3.95v-173.3c.03-2.17,1.78-3.92,3.95-3.95h.05Z"/><path id="Path_309" class="cls-3" d="m194.58,319.12h177.5v148.25l-177.5,4v-152.25Z"/><path id="Path_310" class="cls-8" d="m726.08,483.62v6.41l-47.17-1.26v-5.15h47.17Z"/><path id="Path_311" class="cls-4" d="m788.34,312.33v173.3c-.03,2.19-1.81,3.95-4,3.95h0l-191.69-5.1c-2.13-.08-3.82-1.82-3.85-3.95v-168.2c.03-2.17,1.78-3.92,3.95-3.95h191.6c2.19,0,3.96,1.76,3.99,3.95Z"/><path id="Path_312" class="cls-8" d="m788.34,312.33v173.3c-.03,2.19-1.81,3.95-4,3.95h0v-181.2h0c2.19,0,3.97,1.76,4,3.95h0Z"/><path id="Path_313" class="cls-3" d="m775.58,319.12h-177.5v148.25l177.5,4v-152.25Z"/><path id="Path_314" class="cls-4" d="m583.84,312.33v168.2c-.03,2.13-1.72,3.87-3.85,3.95l-191.65,5.1h0c-2.19,0-3.97-1.76-4-3.95v-173.3c.03-2.17,1.78-3.92,3.95-3.95h191.6c2.17.03,3.92,1.78,3.95,3.95Z"/><path id="Path_315" class="cls-9" d="m397.08,319.12h177.5v148.25l-177.5,4v-152.25Z"/><path id="Path_316" class="cls-8" d="m863.08,533.62v13l-151.92,1.4-1.62.03-57.74.53-1.38.02-17.55.15h-.52l-106.98.99-175.61,1.63h-.15l-44.65.42h-.48s-198.4,1.83-198.4,1.83v-15l202.51-1.33h.48l40.99-.28h.19l283.08-1.87h.46s.47-.01.47-.01l4.79-.03h1.46l74.49-.5,4.4-.02h.98s142.7-.96,142.7-.96Z"/><circle id="Ellipse_111" class="cls-2" cx="487.25" cy="298.12" r="51.33"/><path id="Path_317" class="cls-2" d="m538.59,377.13s-99.5,12-90,0c3.44-4.34,4.39-17.2,4.2-31.85-.06-4.45-.22-9.06-.45-13.65-1.1-22-3.75-43.5-3.75-43.5,0,0,87-41,77-8.5-4,13.13-2.69,31.57.35,48.88.89,5.05,1.92,10,3,14.7,2.64,11.46,5.86,22.79,9.65,33.92Z"/><path id="Path_318" class="cls-5" d="m506.12,373.06c11.51-2.13,23.7-6,34.53-1.54,2.85,1.17,5.47,2.88,8.39,3.86s6.12,1.22,9.16,1.91c10.68,2.42,19.34,10.55,24.9,20s8.44,20.14,11.26,30.72l6.9,25.83c6,22.45,12,45.09,13.39,68.3-83.53,4.78-167.26,5.26-250.84,1.43,5.44-10.34,11-21.31,10.54-33s-7.19-23.22-4.76-34.74c1.55-7.34,6.57-13.39,9.64-20.22,8.75-19.52,1.94-45.79,17.32-60.65,6.92-6.68,17-9.21,26.63-8.89,12.28.41,24.85,4.24,37,6.11,15.56,2.36,30.26,3.76,45.94.88Z"/><path id="Path_319" class="cls-8" d="m637.02,484.23l-.1,1.43v.1l-.17,2.3-1.33,18.51-1.61,22.3-.46,6.28-1,13.44v.17l-107,1-175.59,1.9v.84h-.14v-1.12l.45-14.36.86-28.06.74-23.79.07-2.37c.18-5.81,5.03-10.38,10.85-10.2.19,0,.38.02.57.03,4.72.4,10.85.89,18.18,1.41l3,.22c42.33,2.94,120.56,6.74,199.5,2,1.66-.09,3.33-.19,5-.31,12.24-.77,24.47-1.76,36.58-3,5.78-.61,10.96,3.59,11.57,9.38.06.62.07,1.24.03,1.85v.05Z"/><path id="Path_320" class="cls-1" d="m349.73,552.5v-.84l175.62-1.91,107-1h.3v-.17l1-13.44.43-6,1.64-22.61,1.29-17.9v-.44c.06-.82.02-1.65-.11-2.47,0-.03,0-.07,0-.1-.27-1.69-.96-3.28-2-4.64-2.24-2.87-5.8-4.38-9.42-4-12.11,1.24-24.34,2.23-36.58,3-1.67.12-3.34.22-5,.31-78.94,4.69-157.17.89-199.5-2l-3-.22c-7.33-.52-13.46-1-18.18-1.41-5.38-.45-10.23,3.23-11.24,8.53-.1.54-.16,1.09-.18,1.64l-.68,22.16-.93,28.07-.44,14.36v1.12l-.02-.04Z"/><path id="Path_321" class="cls-8" d="m637.32,491.24l-1.23,15.33-1.83,22.85-.46,5.72-1,12.81-.06.64v.17h0l-.15,1.48.11-1.48h-.29l-107,1-175.65,1.9v-.28l.49-14.36,1-28.06.64-18.65c.06-2.16,1.22-4.13,3.06-5.25,1.13-.69,2.46-1.01,3.78-.9,2.1.17,4.68.37,7.69.59,4.89.36,10.92.78,17.94,1.22,13,.82,29.31,1.7,48,2.42,52,2,122.2,2.67,188.88-3.17,3-.26,6.1-.55,9.13-.84,1.2-.12,2.41.11,3.48.66.3.15.59.33.86.54.87.63,1.56,1.48,2,2.46.1.2.19.4.25.61.3.83.42,1.71.36,2.59Z"/><path id="Path_322" class="cls-8" d="m298.09,504.93v3.19c0,2.37-1.36,4.52-3.5,5.54l-40.1.77c-2.18-1-3.57-3.17-3.57-5.57v-3l47.17-.93Z"/><path id="Path_323" class="cls-1" d="m298.58,515.54l-52.25,1v-8.67l52.25-1v8.67Z"/><path id="Path_324" class="cls-8" d="m298.58,515.54l-52.25,1v-8.67l52.25-1v8.67Z"/><path id="Path_325" class="cls-1" d="m300.58,515.54l-52.25,1v-8.67l52.25-1v8.67Z"/><path id="Path_326" class="cls-8" d="m679.21,506.93v3.19c0,2.37,1.36,4.52,3.5,5.54l40.1.77c2.18-1,3.57-3.17,3.57-5.57v-3l-47.17-.93Z"/><path id="Path_327" class="cls-8" d="m678.71,517.54l52.25,1v-8.67l-52.25-1v8.67Z"/><path id="Path_328" class="cls-1" d="m676.71,517.54l52.25,1v-8.67l-52.25-1v8.67Z"/><path id="Path_329" class="cls-1" d="m454.78,313.85c.08,7-3.16,13.6-5.91,20.07-10.01,23.57-14.35,49.16-12.66,74.71.73,11,2.58,22,.73,32.9s-8.43,21.77-19,24.9c17.53,10.45,41.26,9.35,57.76-2.66,8.79-6.4,15.34-15.33,21.75-24.11-.76,15.77-5.33,31.13-13.31,44.75,29.18-2.58,55.89-17.42,73.51-40.82,4.31-5.81,8.06-12.19,9.72-19.23,3.09-13-1.22-26.51-4.51-39.5-2.75-10.86-4.81-21.88-6.17-33-.43-3.56-.78-7.22.1-10.7,1-4.07,3.67-7.51,5.64-11.22,5.6-10.54,5.73-23.3,2.86-34.88s-8.49-22.26-14.06-32.81c-4.46-8.46-9.3-17.31-17.46-22.28-5.1-3.1-11-4.39-16.88-5.64l-25.37-5.43c-5.55-1.19-11.26-2.38-16.87-1.51-9.47,1.48-16.14,8.32-22,15.34-4.59,5.46-15.81,15.71-16.6,22.86-.72,6.59,5.1,17.63,6.09,24.58,1.3,9,2.22,6,7.3,11.52,3.21,3.42,5.28,7.37,5.34,12.16Z"/></g><g id="React-icon"><path id="Path_330" class="cls-6" d="m729.97,395.74c0-5.83-7.3-11.35-18.49-14.78,2.58-11.4,1.43-20.48-3.62-23.38-1.23-.69-2.61-1.03-4.02-1v4c.71-.02,1.41.14,2.04.47,2.44,1.4,3.5,6.72,2.67,13.57-.2,1.68-.52,3.46-.91,5.27-3.75-.9-7.55-1.56-11.39-1.95-2.28-3.15-4.78-6.15-7.46-8.96,5.85-5.43,11.33-8.41,15.06-8.41v-4.01h0c-4.93,0-11.39,3.51-17.91,9.61-6.53-6.06-12.98-9.54-17.91-9.54v4c3.71,0,9.22,2.96,15.06,8.36-2.67,2.81-5.14,5.8-7.4,8.95-3.84.39-7.65,1.05-11.4,1.97-.41-1.79-.72-3.53-.93-5.2-.84-6.85.2-12.18,2.62-13.59.63-.34,1.35-.5,2.06-.47v-4h0c-1.42-.03-2.81.31-4.05,1-5.04,2.9-6.17,11.96-3.57,23.33-11.15,3.44-18.42,8.95-18.42,14.76s7.3,11.35,18.49,14.77c-2.58,11.4-1.43,20.48,3.62,23.38,1.23.69,2.62,1.03,4.03,1,4.93,0,11.39-3.51,17.91-9.61,6.53,6.06,12.98,9.54,17.91,9.54,1.42.03,2.81-.31,4.05-1,5.04-2.9,6.17-11.96,3.57-23.33,11.11-3.42,18.37-8.94,18.37-14.75Zm-23.35-11.96c-.66,2.31-1.49,4.7-2.42,7.08-.74-1.43-1.51-2.87-2.35-4.3-.82-1.43-1.7-2.83-2.58-4.2,2.55.38,5,.84,7.35,1.42h0Zm-8.21,19.1c-1.4,2.42-2.83,4.72-4.32,6.85-2.67.23-5.38.36-8.1.36s-5.41-.13-8.07-.34c-1.49-2.13-2.93-4.4-4.34-6.81-1.36-2.35-2.61-4.73-3.73-7.14,1.11-2.4,2.37-4.81,3.71-7.15,1.4-2.42,2.83-4.72,4.32-6.85,2.67-.23,5.38-.36,8.1-.36s5.41.13,8.07.34c1.49,2.13,2.93,4.4,4.34,6.81,1.36,2.35,2.61,4.73,3.73,7.14-1.13,2.4-2.37,4.8-3.71,7.15h0Zm5.79-2.33c.97,2.4,1.79,4.81,2.47,7.14-2.35.57-4.82,1.06-7.39,1.43.88-1.38,1.76-2.8,2.58-4.25.83-1.44,1.6-2.89,2.33-4.32h0Zm-18.18,19.13c-1.76-1.83-3.42-3.74-4.99-5.74,1.61.07,3.26.13,4.93.13s3.35-.04,4.99-.13c-1.54,2-3.19,3.92-4.93,5.74Zm-13.34-10.56c-2.55-.38-5-.84-7.35-1.42.66-2.31,1.49-4.7,2.42-7.08.74,1.43,1.51,2.87,2.35,4.3s1.7,2.84,2.58,4.2Zm13.25-37.31c1.76,1.83,3.42,3.74,4.99,5.74-1.61-.07-3.26-.13-4.93-.13s-3.35.04-4.99.13c1.54-2,3.19-3.92,4.93-5.74Zm-13.27,10.56c-.88,1.38-1.76,2.8-2.58,4.25-.82,1.43-1.6,2.87-2.33,4.3-.97-2.4-1.79-4.81-2.47-7.14,2.35-.55,4.82-1.04,7.39-1.41Zm-16.23,22.45c-6.35-2.71-10.45-6.26-10.45-9.07s4.11-6.38,10.45-9.07c1.54-.66,3.23-1.25,4.97-1.81,1.1,3.73,2.44,7.38,4.03,10.92-1.57,3.53-2.9,7.16-3.98,10.87-1.77-.55-3.46-1.16-5.02-1.83h0Zm9.65,25.62c-2.44-1.4-3.5-6.72-2.67-13.57.2-1.69.52-3.46.91-5.27,3.75.9,7.55,1.56,11.39,1.95,2.28,3.15,4.78,6.15,7.46,8.96-5.85,5.43-11.33,8.41-15.06,8.41-.7,0-1.4-.16-2.03-.48h0Zm42.53-13.66c.84,6.85-.2,12.18-2.62,13.59-.63.34-1.35.5-2.06.47-3.71,0-9.22-2.96-15.06-8.36,2.67-2.81,5.14-5.8,7.4-8.95,3.84-.39,7.65-1.05,11.4-1.97.4,1.72.72,3.46.94,5.22h0Zm6.9-11.96c-1.54.66-3.23,1.25-4.97,1.81-1.1-3.73-2.44-7.38-4.03-10.92,1.57-3.53,2.9-7.16,3.98-10.87,1.77.56,3.46,1.17,5.04,1.83,6.35,2.71,10.45,6.26,10.45,9.07-.02,2.82-4.12,6.39-10.47,9.08h0Z"/><circle id="Ellipse_112" class="cls-6" cx="685.97" cy="395.74" r="8.19"/></g><path class="cls-10" d="m291.28,363.75l-4.1,7.09c11.84,4.96,20.15,16.65,20.15,30.29,0,18.12-14.69,32.81-32.82,32.81s-32.81-14.69-32.81-32.81c0-13.64,8.31-25.32,20.14-30.29l-4.09-7.09c-14.26,6.41-24.19,20.73-24.19,37.38,0,22.61,18.34,40.96,40.96,40.96s40.97-18.34,40.97-40.96c0-16.65-9.93-30.98-24.19-37.38Z"/><circle class="cls-10" cx="274.5" cy="401.13" r="14.15"/><path class="cls-10" d="m279.5,375.94l10.31-17.85c2.22-3.85-.56-8.65-5-8.65h-20.61c-4.44,0-7.22,4.81-5,8.65l10.31,17.85c2.22,3.85,7.77,3.85,9.99,0Z"/></g></g></svg>